<mxfile host="app.diagrams.net" modified="2024-06-01T02:37:50.048Z" agent="Mozilla/5.0 (Windows NT 10.0; Win64; x64) AppleWebKit/537.36 (KHTML, like Gecko) Chrome/125.0.0.0 Safari/537.36 Edg/125.0.0.0" etag="p9uXVZg69gpHC31YpfX8" version="24.4.13" type="github">
  <diagram name="第 1 页" id="sOmdhI7CoW7G_uLbqqBi">
    <mxGraphModel dx="1042" dy="577" grid="1" gridSize="10" guides="1" tooltips="1" connect="1" arrows="1" fold="1" page="1" pageScale="1" pageWidth="827" pageHeight="1169" math="0" shadow="0">
      <root>
        <mxCell id="0" />
        <mxCell id="1" parent="0" />
        <mxCell id="09uaSgwA7h_3sDMAsvzK-1" style="edgeStyle=orthogonalEdgeStyle;rounded=0;orthogonalLoop=1;jettySize=auto;html=1;exitX=0.5;exitY=1;exitDx=0;exitDy=0;fontSize=14;" edge="1" parent="1" source="09uaSgwA7h_3sDMAsvzK-8" target="09uaSgwA7h_3sDMAsvzK-9">
          <mxGeometry relative="1" as="geometry" />
        </mxCell>
        <mxCell id="09uaSgwA7h_3sDMAsvzK-2" style="edgeStyle=orthogonalEdgeStyle;rounded=0;orthogonalLoop=1;jettySize=auto;html=1;exitX=0.5;exitY=1;exitDx=0;exitDy=0;fontSize=14;" edge="1" parent="1" source="09uaSgwA7h_3sDMAsvzK-8" target="09uaSgwA7h_3sDMAsvzK-10">
          <mxGeometry relative="1" as="geometry" />
        </mxCell>
        <mxCell id="09uaSgwA7h_3sDMAsvzK-4" style="edgeStyle=orthogonalEdgeStyle;rounded=0;orthogonalLoop=1;jettySize=auto;html=1;exitX=0.5;exitY=1;exitDx=0;exitDy=0;fontSize=14;" edge="1" parent="1" source="09uaSgwA7h_3sDMAsvzK-8" target="09uaSgwA7h_3sDMAsvzK-12">
          <mxGeometry relative="1" as="geometry" />
        </mxCell>
        <mxCell id="09uaSgwA7h_3sDMAsvzK-5" style="edgeStyle=orthogonalEdgeStyle;rounded=0;orthogonalLoop=1;jettySize=auto;html=1;exitX=0.5;exitY=1;exitDx=0;exitDy=0;fontSize=14;" edge="1" parent="1" source="09uaSgwA7h_3sDMAsvzK-8" target="09uaSgwA7h_3sDMAsvzK-13">
          <mxGeometry relative="1" as="geometry" />
        </mxCell>
        <mxCell id="09uaSgwA7h_3sDMAsvzK-6" style="edgeStyle=orthogonalEdgeStyle;rounded=0;orthogonalLoop=1;jettySize=auto;html=1;exitX=0.5;exitY=1;exitDx=0;exitDy=0;fontSize=14;" edge="1" parent="1" source="09uaSgwA7h_3sDMAsvzK-8" target="09uaSgwA7h_3sDMAsvzK-14">
          <mxGeometry relative="1" as="geometry" />
        </mxCell>
        <mxCell id="09uaSgwA7h_3sDMAsvzK-7" style="edgeStyle=orthogonalEdgeStyle;rounded=0;orthogonalLoop=1;jettySize=auto;html=1;exitX=0.5;exitY=1;exitDx=0;exitDy=0;fontSize=14;" edge="1" parent="1" source="09uaSgwA7h_3sDMAsvzK-8" target="09uaSgwA7h_3sDMAsvzK-15">
          <mxGeometry relative="1" as="geometry" />
        </mxCell>
        <mxCell id="09uaSgwA7h_3sDMAsvzK-18" style="edgeStyle=orthogonalEdgeStyle;rounded=0;orthogonalLoop=1;jettySize=auto;html=1;exitX=0.5;exitY=1;exitDx=0;exitDy=0;fontSize=14;" edge="1" parent="1" source="09uaSgwA7h_3sDMAsvzK-8" target="09uaSgwA7h_3sDMAsvzK-16">
          <mxGeometry relative="1" as="geometry" />
        </mxCell>
        <mxCell id="09uaSgwA7h_3sDMAsvzK-19" style="edgeStyle=orthogonalEdgeStyle;rounded=0;orthogonalLoop=1;jettySize=auto;html=1;exitX=0.5;exitY=1;exitDx=0;exitDy=0;fontSize=14;" edge="1" parent="1" source="09uaSgwA7h_3sDMAsvzK-8" target="09uaSgwA7h_3sDMAsvzK-17">
          <mxGeometry relative="1" as="geometry" />
        </mxCell>
        <mxCell id="09uaSgwA7h_3sDMAsvzK-8" value="系统管理员" style="rounded=0;whiteSpace=wrap;html=1;fontSize=14;" vertex="1" parent="1">
          <mxGeometry x="450" y="120" width="140" height="30" as="geometry" />
        </mxCell>
        <mxCell id="09uaSgwA7h_3sDMAsvzK-9" value="登录" style="rounded=0;whiteSpace=wrap;html=1;fontSize=14;textDirection=vertical-lr;" vertex="1" parent="1">
          <mxGeometry x="210" y="230" width="40" height="120" as="geometry" />
        </mxCell>
        <mxCell id="09uaSgwA7h_3sDMAsvzK-10" value="注册" style="rounded=0;whiteSpace=wrap;html=1;fontSize=14;textDirection=vertical-lr;" vertex="1" parent="1">
          <mxGeometry x="290" y="230" width="40" height="120" as="geometry" />
        </mxCell>
        <mxCell id="09uaSgwA7h_3sDMAsvzK-12" value="用户管理" style="rounded=0;whiteSpace=wrap;html=1;fontSize=14;textDirection=vertical-lr;" vertex="1" parent="1">
          <mxGeometry x="370" y="230" width="40" height="120" as="geometry" />
        </mxCell>
        <mxCell id="09uaSgwA7h_3sDMAsvzK-13" value="物种管理" style="rounded=0;whiteSpace=wrap;html=1;fontSize=14;textDirection=vertical-lr;" vertex="1" parent="1">
          <mxGeometry x="460" y="230" width="40" height="120" as="geometry" />
        </mxCell>
        <mxCell id="09uaSgwA7h_3sDMAsvzK-14" value="订单管理" style="rounded=0;whiteSpace=wrap;html=1;fontSize=14;textDirection=vertical-lr;" vertex="1" parent="1">
          <mxGeometry x="540" y="230" width="40" height="120" as="geometry" />
        </mxCell>
        <mxCell id="09uaSgwA7h_3sDMAsvzK-15" value="反馈管理" style="rounded=0;whiteSpace=wrap;html=1;fontSize=14;textDirection=vertical-lr;" vertex="1" parent="1">
          <mxGeometry x="620" y="230" width="40" height="120" as="geometry" />
        </mxCell>
        <mxCell id="09uaSgwA7h_3sDMAsvzK-16" value="活动管理" style="rounded=0;whiteSpace=wrap;html=1;fontSize=14;textDirection=vertical-lr;" vertex="1" parent="1">
          <mxGeometry x="697" y="230" width="40" height="120" as="geometry" />
        </mxCell>
        <mxCell id="09uaSgwA7h_3sDMAsvzK-17" value="商品管理" style="rounded=0;whiteSpace=wrap;html=1;fontSize=14;textDirection=vertical-lr;" vertex="1" parent="1">
          <mxGeometry x="780" y="230" width="40" height="120" as="geometry" />
        </mxCell>
      </root>
    </mxGraphModel>
  </diagram>
</mxfile>
